<svg xmlns="http://www.w3.org/2000/svg" xmlns:xlink="http://www.w3.org/1999/xlink" width="107" height="218" viewBox="0 0 107 218">
  <defs>
    <style>
      .cls-1 {
        fill: none;
      }

      .cls-2 {
        clip-path: url(#clip-intro_1);
      }

      .cls-3 {
        clip-path: url(#clip-path);
      }

      .cls-4 {
        fill: #b2b2b2;
      }
    </style>
    <clipPath id="clip-path">
      <rect class="cls-1" width="109" height="223"/>
    </clipPath>
    <clipPath id="clip-intro_1">
      <rect width="107" height="218"/>
    </clipPath>
  </defs>
  <g id="intro_1" data-name="intro – 1" class="cls-2">
    <g id="Repeat_Grid_1" data-name="Repeat Grid 1" class="cls-3">
      <g transform="translate(-478 -208)">
        <circle id="Ellipse_1" data-name="Ellipse 1" class="cls-4" cx="4" cy="4" r="4" transform="translate(478 208)"/>
      </g>
      <g transform="translate(-462 -208)">
        <circle id="Ellipse_1-2" data-name="Ellipse 1" class="cls-4" cx="4" cy="4" r="4" transform="translate(478 208)"/>
      </g>
      <g transform="translate(-446 -208)">
        <circle id="Ellipse_1-3" data-name="Ellipse 1" class="cls-4" cx="4" cy="4" r="4" transform="translate(478 208)"/>
      </g>
      <g transform="translate(-430 -208)">
        <circle id="Ellipse_1-4" data-name="Ellipse 1" class="cls-4" cx="4" cy="4" r="4" transform="translate(478 208)"/>
      </g>
      <g transform="translate(-414 -208)">
        <circle id="Ellipse_1-5" data-name="Ellipse 1" class="cls-4" cx="4" cy="4" r="4" transform="translate(478 208)"/>
      </g>
      <g transform="translate(-398 -208)">
        <circle id="Ellipse_1-6" data-name="Ellipse 1" class="cls-4" cx="4" cy="4" r="4" transform="translate(478 208)"/>
      </g>
      <g transform="translate(-382 -208)">
        <circle id="Ellipse_1-7" data-name="Ellipse 1" class="cls-4" cx="4" cy="4" r="4" transform="translate(478 208)"/>
      </g>
      <g transform="translate(-478 -192)">
        <circle id="Ellipse_1-8" data-name="Ellipse 1" class="cls-4" cx="4" cy="4" r="4" transform="translate(478 208)"/>
      </g>
      <g transform="translate(-462 -192)">
        <circle id="Ellipse_1-9" data-name="Ellipse 1" class="cls-4" cx="4" cy="4" r="4" transform="translate(478 208)"/>
      </g>
      <g transform="translate(-446 -192)">
        <circle id="Ellipse_1-10" data-name="Ellipse 1" class="cls-4" cx="4" cy="4" r="4" transform="translate(478 208)"/>
      </g>
      <g transform="translate(-430 -192)">
        <circle id="Ellipse_1-11" data-name="Ellipse 1" class="cls-4" cx="4" cy="4" r="4" transform="translate(478 208)"/>
      </g>
      <g transform="translate(-414 -192)">
        <circle id="Ellipse_1-12" data-name="Ellipse 1" class="cls-4" cx="4" cy="4" r="4" transform="translate(478 208)"/>
      </g>
      <g transform="translate(-398 -192)">
        <circle id="Ellipse_1-13" data-name="Ellipse 1" class="cls-4" cx="4" cy="4" r="4" transform="translate(478 208)"/>
      </g>
      <g transform="translate(-382 -192)">
        <circle id="Ellipse_1-14" data-name="Ellipse 1" class="cls-4" cx="4" cy="4" r="4" transform="translate(478 208)"/>
      </g>
      <g transform="translate(-478 -176)">
        <circle id="Ellipse_1-15" data-name="Ellipse 1" class="cls-4" cx="4" cy="4" r="4" transform="translate(478 208)"/>
      </g>
      <g transform="translate(-462 -176)">
        <circle id="Ellipse_1-16" data-name="Ellipse 1" class="cls-4" cx="4" cy="4" r="4" transform="translate(478 208)"/>
      </g>
      <g transform="translate(-446 -176)">
        <circle id="Ellipse_1-17" data-name="Ellipse 1" class="cls-4" cx="4" cy="4" r="4" transform="translate(478 208)"/>
      </g>
      <g transform="translate(-430 -176)">
        <circle id="Ellipse_1-18" data-name="Ellipse 1" class="cls-4" cx="4" cy="4" r="4" transform="translate(478 208)"/>
      </g>
      <g transform="translate(-414 -176)">
        <circle id="Ellipse_1-19" data-name="Ellipse 1" class="cls-4" cx="4" cy="4" r="4" transform="translate(478 208)"/>
      </g>
      <g transform="translate(-398 -176)">
        <circle id="Ellipse_1-20" data-name="Ellipse 1" class="cls-4" cx="4" cy="4" r="4" transform="translate(478 208)"/>
      </g>
      <g transform="translate(-382 -176)">
        <circle id="Ellipse_1-21" data-name="Ellipse 1" class="cls-4" cx="4" cy="4" r="4" transform="translate(478 208)"/>
      </g>
      <g transform="translate(-478 -160)">
        <circle id="Ellipse_1-22" data-name="Ellipse 1" class="cls-4" cx="4" cy="4" r="4" transform="translate(478 208)"/>
      </g>
      <g transform="translate(-462 -160)">
        <circle id="Ellipse_1-23" data-name="Ellipse 1" class="cls-4" cx="4" cy="4" r="4" transform="translate(478 208)"/>
      </g>
      <g transform="translate(-446 -160)">
        <circle id="Ellipse_1-24" data-name="Ellipse 1" class="cls-4" cx="4" cy="4" r="4" transform="translate(478 208)"/>
      </g>
      <g transform="translate(-430 -160)">
        <circle id="Ellipse_1-25" data-name="Ellipse 1" class="cls-4" cx="4" cy="4" r="4" transform="translate(478 208)"/>
      </g>
      <g transform="translate(-414 -160)">
        <circle id="Ellipse_1-26" data-name="Ellipse 1" class="cls-4" cx="4" cy="4" r="4" transform="translate(478 208)"/>
      </g>
      <g transform="translate(-398 -160)">
        <circle id="Ellipse_1-27" data-name="Ellipse 1" class="cls-4" cx="4" cy="4" r="4" transform="translate(478 208)"/>
      </g>
      <g transform="translate(-382 -160)">
        <circle id="Ellipse_1-28" data-name="Ellipse 1" class="cls-4" cx="4" cy="4" r="4" transform="translate(478 208)"/>
      </g>
      <g transform="translate(-478 -144)">
        <circle id="Ellipse_1-29" data-name="Ellipse 1" class="cls-4" cx="4" cy="4" r="4" transform="translate(478 208)"/>
      </g>
      <g transform="translate(-462 -144)">
        <circle id="Ellipse_1-30" data-name="Ellipse 1" class="cls-4" cx="4" cy="4" r="4" transform="translate(478 208)"/>
      </g>
      <g transform="translate(-446 -144)">
        <circle id="Ellipse_1-31" data-name="Ellipse 1" class="cls-4" cx="4" cy="4" r="4" transform="translate(478 208)"/>
      </g>
      <g transform="translate(-430 -144)">
        <circle id="Ellipse_1-32" data-name="Ellipse 1" class="cls-4" cx="4" cy="4" r="4" transform="translate(478 208)"/>
      </g>
      <g transform="translate(-414 -144)">
        <circle id="Ellipse_1-33" data-name="Ellipse 1" class="cls-4" cx="4" cy="4" r="4" transform="translate(478 208)"/>
      </g>
      <g transform="translate(-398 -144)">
        <circle id="Ellipse_1-34" data-name="Ellipse 1" class="cls-4" cx="4" cy="4" r="4" transform="translate(478 208)"/>
      </g>
      <g transform="translate(-382 -144)">
        <circle id="Ellipse_1-35" data-name="Ellipse 1" class="cls-4" cx="4" cy="4" r="4" transform="translate(478 208)"/>
      </g>
      <g transform="translate(-478 -128)">
        <circle id="Ellipse_1-36" data-name="Ellipse 1" class="cls-4" cx="4" cy="4" r="4" transform="translate(478 208)"/>
      </g>
      <g transform="translate(-462 -128)">
        <circle id="Ellipse_1-37" data-name="Ellipse 1" class="cls-4" cx="4" cy="4" r="4" transform="translate(478 208)"/>
      </g>
      <g transform="translate(-446 -128)">
        <circle id="Ellipse_1-38" data-name="Ellipse 1" class="cls-4" cx="4" cy="4" r="4" transform="translate(478 208)"/>
      </g>
      <g transform="translate(-430 -128)">
        <circle id="Ellipse_1-39" data-name="Ellipse 1" class="cls-4" cx="4" cy="4" r="4" transform="translate(478 208)"/>
      </g>
      <g transform="translate(-414 -128)">
        <circle id="Ellipse_1-40" data-name="Ellipse 1" class="cls-4" cx="4" cy="4" r="4" transform="translate(478 208)"/>
      </g>
      <g transform="translate(-398 -128)">
        <circle id="Ellipse_1-41" data-name="Ellipse 1" class="cls-4" cx="4" cy="4" r="4" transform="translate(478 208)"/>
      </g>
      <g transform="translate(-382 -128)">
        <circle id="Ellipse_1-42" data-name="Ellipse 1" class="cls-4" cx="4" cy="4" r="4" transform="translate(478 208)"/>
      </g>
      <g transform="translate(-478 -112)">
        <circle id="Ellipse_1-43" data-name="Ellipse 1" class="cls-4" cx="4" cy="4" r="4" transform="translate(478 208)"/>
      </g>
      <g transform="translate(-462 -112)">
        <circle id="Ellipse_1-44" data-name="Ellipse 1" class="cls-4" cx="4" cy="4" r="4" transform="translate(478 208)"/>
      </g>
      <g transform="translate(-446 -112)">
        <circle id="Ellipse_1-45" data-name="Ellipse 1" class="cls-4" cx="4" cy="4" r="4" transform="translate(478 208)"/>
      </g>
      <g transform="translate(-430 -112)">
        <circle id="Ellipse_1-46" data-name="Ellipse 1" class="cls-4" cx="4" cy="4" r="4" transform="translate(478 208)"/>
      </g>
      <g transform="translate(-414 -112)">
        <circle id="Ellipse_1-47" data-name="Ellipse 1" class="cls-4" cx="4" cy="4" r="4" transform="translate(478 208)"/>
      </g>
      <g transform="translate(-398 -112)">
        <circle id="Ellipse_1-48" data-name="Ellipse 1" class="cls-4" cx="4" cy="4" r="4" transform="translate(478 208)"/>
      </g>
      <g transform="translate(-382 -112)">
        <circle id="Ellipse_1-49" data-name="Ellipse 1" class="cls-4" cx="4" cy="4" r="4" transform="translate(478 208)"/>
      </g>
      <g transform="translate(-478 -96)">
        <circle id="Ellipse_1-50" data-name="Ellipse 1" class="cls-4" cx="4" cy="4" r="4" transform="translate(478 208)"/>
      </g>
      <g transform="translate(-462 -96)">
        <circle id="Ellipse_1-51" data-name="Ellipse 1" class="cls-4" cx="4" cy="4" r="4" transform="translate(478 208)"/>
      </g>
      <g transform="translate(-446 -96)">
        <circle id="Ellipse_1-52" data-name="Ellipse 1" class="cls-4" cx="4" cy="4" r="4" transform="translate(478 208)"/>
      </g>
      <g transform="translate(-430 -96)">
        <circle id="Ellipse_1-53" data-name="Ellipse 1" class="cls-4" cx="4" cy="4" r="4" transform="translate(478 208)"/>
      </g>
      <g transform="translate(-414 -96)">
        <circle id="Ellipse_1-54" data-name="Ellipse 1" class="cls-4" cx="4" cy="4" r="4" transform="translate(478 208)"/>
      </g>
      <g transform="translate(-398 -96)">
        <circle id="Ellipse_1-55" data-name="Ellipse 1" class="cls-4" cx="4" cy="4" r="4" transform="translate(478 208)"/>
      </g>
      <g transform="translate(-382 -96)">
        <circle id="Ellipse_1-56" data-name="Ellipse 1" class="cls-4" cx="4" cy="4" r="4" transform="translate(478 208)"/>
      </g>
      <g transform="translate(-478 -80)">
        <circle id="Ellipse_1-57" data-name="Ellipse 1" class="cls-4" cx="4" cy="4" r="4" transform="translate(478 208)"/>
      </g>
      <g transform="translate(-462 -80)">
        <circle id="Ellipse_1-58" data-name="Ellipse 1" class="cls-4" cx="4" cy="4" r="4" transform="translate(478 208)"/>
      </g>
      <g transform="translate(-446 -80)">
        <circle id="Ellipse_1-59" data-name="Ellipse 1" class="cls-4" cx="4" cy="4" r="4" transform="translate(478 208)"/>
      </g>
      <g transform="translate(-430 -80)">
        <circle id="Ellipse_1-60" data-name="Ellipse 1" class="cls-4" cx="4" cy="4" r="4" transform="translate(478 208)"/>
      </g>
      <g transform="translate(-414 -80)">
        <circle id="Ellipse_1-61" data-name="Ellipse 1" class="cls-4" cx="4" cy="4" r="4" transform="translate(478 208)"/>
      </g>
      <g transform="translate(-398 -80)">
        <circle id="Ellipse_1-62" data-name="Ellipse 1" class="cls-4" cx="4" cy="4" r="4" transform="translate(478 208)"/>
      </g>
      <g transform="translate(-382 -80)">
        <circle id="Ellipse_1-63" data-name="Ellipse 1" class="cls-4" cx="4" cy="4" r="4" transform="translate(478 208)"/>
      </g>
      <g transform="translate(-478 -64)">
        <circle id="Ellipse_1-64" data-name="Ellipse 1" class="cls-4" cx="4" cy="4" r="4" transform="translate(478 208)"/>
      </g>
      <g transform="translate(-462 -64)">
        <circle id="Ellipse_1-65" data-name="Ellipse 1" class="cls-4" cx="4" cy="4" r="4" transform="translate(478 208)"/>
      </g>
      <g transform="translate(-446 -64)">
        <circle id="Ellipse_1-66" data-name="Ellipse 1" class="cls-4" cx="4" cy="4" r="4" transform="translate(478 208)"/>
      </g>
      <g transform="translate(-430 -64)">
        <circle id="Ellipse_1-67" data-name="Ellipse 1" class="cls-4" cx="4" cy="4" r="4" transform="translate(478 208)"/>
      </g>
      <g transform="translate(-414 -64)">
        <circle id="Ellipse_1-68" data-name="Ellipse 1" class="cls-4" cx="4" cy="4" r="4" transform="translate(478 208)"/>
      </g>
      <g transform="translate(-398 -64)">
        <circle id="Ellipse_1-69" data-name="Ellipse 1" class="cls-4" cx="4" cy="4" r="4" transform="translate(478 208)"/>
      </g>
      <g transform="translate(-382 -64)">
        <circle id="Ellipse_1-70" data-name="Ellipse 1" class="cls-4" cx="4" cy="4" r="4" transform="translate(478 208)"/>
      </g>
      <g transform="translate(-478 -48)">
        <circle id="Ellipse_1-71" data-name="Ellipse 1" class="cls-4" cx="4" cy="4" r="4" transform="translate(478 208)"/>
      </g>
      <g transform="translate(-462 -48)">
        <circle id="Ellipse_1-72" data-name="Ellipse 1" class="cls-4" cx="4" cy="4" r="4" transform="translate(478 208)"/>
      </g>
      <g transform="translate(-446 -48)">
        <circle id="Ellipse_1-73" data-name="Ellipse 1" class="cls-4" cx="4" cy="4" r="4" transform="translate(478 208)"/>
      </g>
      <g transform="translate(-430 -48)">
        <circle id="Ellipse_1-74" data-name="Ellipse 1" class="cls-4" cx="4" cy="4" r="4" transform="translate(478 208)"/>
      </g>
      <g transform="translate(-414 -48)">
        <circle id="Ellipse_1-75" data-name="Ellipse 1" class="cls-4" cx="4" cy="4" r="4" transform="translate(478 208)"/>
      </g>
      <g transform="translate(-398 -48)">
        <circle id="Ellipse_1-76" data-name="Ellipse 1" class="cls-4" cx="4" cy="4" r="4" transform="translate(478 208)"/>
      </g>
      <g transform="translate(-382 -48)">
        <circle id="Ellipse_1-77" data-name="Ellipse 1" class="cls-4" cx="4" cy="4" r="4" transform="translate(478 208)"/>
      </g>
      <g transform="translate(-478 -32)">
        <circle id="Ellipse_1-78" data-name="Ellipse 1" class="cls-4" cx="4" cy="4" r="4" transform="translate(478 208)"/>
      </g>
      <g transform="translate(-462 -32)">
        <circle id="Ellipse_1-79" data-name="Ellipse 1" class="cls-4" cx="4" cy="4" r="4" transform="translate(478 208)"/>
      </g>
      <g transform="translate(-446 -32)">
        <circle id="Ellipse_1-80" data-name="Ellipse 1" class="cls-4" cx="4" cy="4" r="4" transform="translate(478 208)"/>
      </g>
      <g transform="translate(-430 -32)">
        <circle id="Ellipse_1-81" data-name="Ellipse 1" class="cls-4" cx="4" cy="4" r="4" transform="translate(478 208)"/>
      </g>
      <g transform="translate(-414 -32)">
        <circle id="Ellipse_1-82" data-name="Ellipse 1" class="cls-4" cx="4" cy="4" r="4" transform="translate(478 208)"/>
      </g>
      <g transform="translate(-398 -32)">
        <circle id="Ellipse_1-83" data-name="Ellipse 1" class="cls-4" cx="4" cy="4" r="4" transform="translate(478 208)"/>
      </g>
      <g transform="translate(-382 -32)">
        <circle id="Ellipse_1-84" data-name="Ellipse 1" class="cls-4" cx="4" cy="4" r="4" transform="translate(478 208)"/>
      </g>
      <g transform="translate(-478 -16)">
        <circle id="Ellipse_1-85" data-name="Ellipse 1" class="cls-4" cx="4" cy="4" r="4" transform="translate(478 208)"/>
      </g>
      <g transform="translate(-462 -16)">
        <circle id="Ellipse_1-86" data-name="Ellipse 1" class="cls-4" cx="4" cy="4" r="4" transform="translate(478 208)"/>
      </g>
      <g transform="translate(-446 -16)">
        <circle id="Ellipse_1-87" data-name="Ellipse 1" class="cls-4" cx="4" cy="4" r="4" transform="translate(478 208)"/>
      </g>
      <g transform="translate(-430 -16)">
        <circle id="Ellipse_1-88" data-name="Ellipse 1" class="cls-4" cx="4" cy="4" r="4" transform="translate(478 208)"/>
      </g>
      <g transform="translate(-414 -16)">
        <circle id="Ellipse_1-89" data-name="Ellipse 1" class="cls-4" cx="4" cy="4" r="4" transform="translate(478 208)"/>
      </g>
      <g transform="translate(-398 -16)">
        <circle id="Ellipse_1-90" data-name="Ellipse 1" class="cls-4" cx="4" cy="4" r="4" transform="translate(478 208)"/>
      </g>
      <g transform="translate(-382 -16)">
        <circle id="Ellipse_1-91" data-name="Ellipse 1" class="cls-4" cx="4" cy="4" r="4" transform="translate(478 208)"/>
      </g>
      <g transform="translate(-478)">
        <circle id="Ellipse_1-92" data-name="Ellipse 1" class="cls-4" cx="4" cy="4" r="4" transform="translate(478 208)"/>
      </g>
      <g transform="translate(-462)">
        <circle id="Ellipse_1-93" data-name="Ellipse 1" class="cls-4" cx="4" cy="4" r="4" transform="translate(478 208)"/>
      </g>
      <g transform="translate(-446)">
        <circle id="Ellipse_1-94" data-name="Ellipse 1" class="cls-4" cx="4" cy="4" r="4" transform="translate(478 208)"/>
      </g>
      <g transform="translate(-430)">
        <circle id="Ellipse_1-95" data-name="Ellipse 1" class="cls-4" cx="4" cy="4" r="4" transform="translate(478 208)"/>
      </g>
      <g transform="translate(-414)">
        <circle id="Ellipse_1-96" data-name="Ellipse 1" class="cls-4" cx="4" cy="4" r="4" transform="translate(478 208)"/>
      </g>
      <g transform="translate(-398)">
        <circle id="Ellipse_1-97" data-name="Ellipse 1" class="cls-4" cx="4" cy="4" r="4" transform="translate(478 208)"/>
      </g>
      <g transform="translate(-382)">
        <circle id="Ellipse_1-98" data-name="Ellipse 1" class="cls-4" cx="4" cy="4" r="4" transform="translate(478 208)"/>
      </g>
    </g>
  </g>
</svg>
